<svg xmlns="http://www.w3.org/2000/svg" width="3" height="15.01" viewBox="0 0 3 15.01">
  <g id="Grupo_1687" data-name="Grupo 1687" transform="translate(-1251 -462)">
    <g id="Icon_feather-more-vertical" data-name="Icon feather-more-vertical" transform="translate(1234.5 455)">
      <path id="Caminho_937" data-name="Caminho 937" d="M19.5,18A1.5,1.5,0,1,1,18,16.5,1.5,1.5,0,0,1,19.5,18Z" transform="translate(0 -3.49)" fill="#acacac"/>
      <path id="Caminho_938" data-name="Caminho 938" d="M19.5,7.5A1.5,1.5,0,1,1,18,6,1.5,1.5,0,0,1,19.5,7.5Z" transform="translate(0 1)" fill="#acacac"/>
      <path id="Caminho_939" data-name="Caminho 939" d="M19.5,28.5A1.5,1.5,0,1,1,18,27,1.5,1.5,0,0,1,19.5,28.5Z" transform="translate(0 -7.99)" fill="#acacac"/>
    </g>
  </g>
</svg>
