<svg xmlns="http://www.w3.org/2000/svg" width="32" height="27.99" viewBox="0 0 32 27.99">
  <g id="Grupo_12" data-name="Grupo 12" transform="translate(-1579 -821)">
    <g id="people_outline-24px" transform="translate(1583 821)">
      <path id="Caminho_11" data-name="Caminho 11" d="M0,0H28V27.99H0Z" fill="none"/>
      <path id="Caminho_12" data-name="Caminho 12" d="M11.1,22.149c-3.042,0-9.1,2.293-9.1,6.86v3.43H20.2v-3.43C20.2,24.443,14.142,22.149,11.1,22.149Zm-6.058,6.37a9.608,9.608,0,0,1,6.058-2.45,9.608,9.608,0,0,1,6.058,2.45Zm6.058-9.8c2.509,0,4.55-3.077,4.55-6.86S13.609,5,11.1,5,6.55,8.077,6.55,11.86,8.591,18.72,11.1,18.72Zm0-9.8c1.079,0,1.95,1.313,1.95,2.94s-.871,2.94-1.95,2.94-1.95-1.313-1.95-2.94S10.021,8.92,11.1,8.92Zm9.152,13.347A9.649,9.649,0,0,1,22.8,29.009v3.43H28v-3.43C28,25.05,23.45,22.8,20.252,22.267ZM18.9,18.72c2.509,0,4.55-3.077,4.55-6.86S21.409,5,18.9,5a3.31,3.31,0,0,0-1.95.686,14.653,14.653,0,0,1,1.3,6.174,14.653,14.653,0,0,1-1.3,6.174A3.31,3.31,0,0,0,18.9,18.72Z" transform="translate(0 -4.449)" fill="#bdbdbd"/>
    </g>
    <g id="Componente_1_3" data-name="Componente 1 – 3" transform="translate(1579 829.995)">
      <path id="Caminho_17" data-name="Caminho 17" d="M7.25,17V13.25H11v-2.5H7.25V7H4.75v3.75H1v2.5H4.75V17Z" transform="translate(-1 -7)" fill="#bdbdbd"/>
    </g>
  </g>
</svg>
