<svg xmlns="http://www.w3.org/2000/svg" width="25.4" height="28.013" viewBox="0 0 25.4 28.013">
  <path id="calendar-day-solid" d="M0,25.387a2.676,2.676,0,0,0,2.721,2.626H22.678A2.676,2.676,0,0,0,25.4,25.387V10.5H0Zm3.629-10.5a.894.894,0,0,1,.907-.875H9.979a.894.894,0,0,1,.907.875v5.252a.894.894,0,0,1-.907.875H4.536a.894.894,0,0,1-.907-.875ZM22.678,3.5H19.957V.875A.894.894,0,0,0,19.05,0H17.236a.894.894,0,0,0-.907.875V3.5H9.071V.875A.894.894,0,0,0,8.164,0H6.35a.894.894,0,0,0-.907.875V3.5H2.721A2.676,2.676,0,0,0,0,6.128V8.754H25.4V6.128A2.676,2.676,0,0,0,22.678,3.5Z" fill="#fcc617"/>
</svg>
