<svg xmlns="http://www.w3.org/2000/svg" width="48.125" height="55" viewBox="0 0 48.125 55">
  <path id="building-regular" d="M13.75,15.9V11.6a1.293,1.293,0,0,1,1.289-1.289h4.3A1.293,1.293,0,0,1,20.625,11.6v4.3a1.293,1.293,0,0,1-1.289,1.289h-4.3A1.293,1.293,0,0,1,13.75,15.9Zm15.039,1.289h4.3A1.293,1.293,0,0,0,34.375,15.9V11.6a1.293,1.293,0,0,0-1.289-1.289h-4.3A1.293,1.293,0,0,0,27.5,11.6v4.3A1.293,1.293,0,0,0,28.789,17.188ZM15.039,27.5h4.3a1.293,1.293,0,0,0,1.289-1.289v-4.3a1.293,1.293,0,0,0-1.289-1.289h-4.3a1.293,1.293,0,0,0-1.289,1.289v4.3A1.293,1.293,0,0,0,15.039,27.5Zm13.75,0h4.3a1.293,1.293,0,0,0,1.289-1.289v-4.3a1.293,1.293,0,0,0-1.289-1.289h-4.3A1.293,1.293,0,0,0,27.5,21.914v4.3A1.293,1.293,0,0,0,28.789,27.5Zm-8.164,9.023v-4.3a1.293,1.293,0,0,0-1.289-1.289h-4.3a1.293,1.293,0,0,0-1.289,1.289v4.3a1.293,1.293,0,0,0,1.289,1.289h4.3A1.293,1.293,0,0,0,20.625,36.523Zm8.164,1.289h4.3a1.293,1.293,0,0,0,1.289-1.289v-4.3a1.293,1.293,0,0,0-1.289-1.289h-4.3A1.293,1.293,0,0,0,27.5,32.227v4.3A1.293,1.293,0,0,0,28.789,37.813Zm19.336,13.32V55H0V51.133a1.293,1.293,0,0,1,1.289-1.289H3.384V2.578A2.572,2.572,0,0,1,5.962,0h36.2a2.572,2.572,0,0,1,2.578,2.578V49.844h2.095A1.293,1.293,0,0,1,48.125,51.133ZM8.54,49.736H20.625v-7.2a1.293,1.293,0,0,1,1.289-1.289h4.3A1.293,1.293,0,0,1,27.5,42.539v7.2H39.585V5.264L8.594,5.156Z"/>
</svg>
