<svg xmlns="http://www.w3.org/2000/svg" width="30.4" height="36.719" viewBox="0 0 30.4 36.719">
  <path id="building-regular" d="M8.686,10.614V7.745A.841.841,0,0,1,9.5,6.885h2.714a.841.841,0,0,1,.814.861v2.869a.841.841,0,0,1-.814.861H9.5A.841.841,0,0,1,8.686,10.614Zm9.5.861H20.9a.841.841,0,0,0,.814-.861V7.745a.841.841,0,0,0-.814-.861H18.186a.841.841,0,0,0-.814.861v2.869A.841.841,0,0,0,18.186,11.475ZM9.5,18.359h2.714a.841.841,0,0,0,.814-.861V14.63a.841.841,0,0,0-.814-.861H9.5a.841.841,0,0,0-.814.861V17.5A.841.841,0,0,0,9.5,18.359Zm8.686,0H20.9a.841.841,0,0,0,.814-.861V14.63a.841.841,0,0,0-.814-.861H18.186a.841.841,0,0,0-.814.861V17.5A.841.841,0,0,0,18.186,18.359Zm-5.157,6.024V21.515a.841.841,0,0,0-.814-.861H9.5a.841.841,0,0,0-.814.861v2.869a.841.841,0,0,0,.814.861h2.714A.841.841,0,0,0,13.029,24.384Zm5.157.861H20.9a.841.841,0,0,0,.814-.861V21.515a.841.841,0,0,0-.814-.861H18.186a.841.841,0,0,0-.814.861v2.869A.841.841,0,0,0,18.186,25.244ZM30.4,34.137v2.582H0V34.137a.841.841,0,0,1,.814-.861H2.137V1.721A1.673,1.673,0,0,1,3.766,0H26.634a1.673,1.673,0,0,1,1.629,1.721V33.277h1.323A.841.841,0,0,1,30.4,34.137ZM5.395,33.2h7.634V28.4a.841.841,0,0,1,.814-.861h2.714a.841.841,0,0,1,.814.861V33.2h7.634V3.514L5.429,3.442Z" fill="#bdbdbd"/>
</svg>
