<svg xmlns="http://www.w3.org/2000/svg" width="166.237" height="126.073" viewBox="0 0 166.237 126.073">
  <g id="email-verification" transform="translate(-4.382 0.619)">
    <path id="Caminho_1" data-name="Caminho 1" d="M168.342,41.328c0,36.236-44.606,83.771-80.842,83.771S6.658,119.157,6.658,82.921,44.82.322,81.056.322,168.342,5.093,168.342,41.328Z" fill="rgba(252,198,23,0.4)"/>
    <g id="Grupo_7" data-name="Grupo 7">
      <g id="Grupo_3" data-name="Grupo 3">
        <g id="Grupo_1" data-name="Grupo 1">
          <path id="Caminho_8" data-name="Caminho 8" d="M4,0H142.453a4,4,0,0,1,4,4V83.872a4,4,0,0,1-4,4H4a4,4,0,0,1-4-4V4A4,4,0,0,1,4,0Z" transform="matrix(0.961, -0.276, 0.276, 0.961, 5, 40.368)" stroke="#fcc617" stroke-width="1"/>
        </g>
        <path id="Caminho_2" data-name="Caminho 2" d="M7.071,47.592a4,4,0,0,1,2.742-4.948L142.9,4.481a4,4,0,0,1,4.948,2.742l4.3,15.007a4,4,0,0,1-1.329,4.212L92.371,73.74a4,4,0,0,1-3,.861L14.734,65.467A4,4,0,0,1,11.375,62.6Z" fill="#fff"/>
        <path id="Caminho_3" data-name="Caminho 3" d="M7.071,47.592a4,4,0,0,1,2.742-4.948l62.7-17.979a4,4,0,0,1,4.948,2.743l4.273,14.9a4,4,0,0,0,3.509,2.883l24.541,2.071a4,4,0,0,1,2.458,6.847L92.426,73.464a4,4,0,0,1-3.281,1.109L14.734,65.467A4,4,0,0,1,11.375,62.6Z" fill="#fff" stroke="#fcc617" stroke-width="1"/>
        <g id="Grupo_2" data-name="Grupo 2">
          <path id="Caminho_4" data-name="Caminho 4" d="M6.1,44.213a4,4,0,0,1,2.742-4.948L141.934,1.1a4,4,0,0,1,4.948,2.743l4.3,15.007a4,4,0,0,1-1.329,4.212L91.4,70.361a4,4,0,0,1-3,.861L13.765,62.088a4,4,0,0,1-3.359-2.868Z" stroke="#fcc617" stroke-width="1" opacity="0.93"/>
        </g>
      </g>
      <g id="Grupo_4" data-name="Grupo 4">
        <path id="Caminho_5" data-name="Caminho 5" d="M110.234,64.126c1.258,11.827-6.3,20.393-15.629,23.069S77.142,85.8,72.507,77.077c-6.687-8.443,2.635-23.609,11.965-26.284,5.308-1.522,12.547-3.19,17.823-.54C106.292,52.261,108.892,57.155,110.234,64.126Z" fill="#fff" stroke="#fcc617" stroke-width="1"/>
      </g>
      <g id="Grupo_8" data-name="Grupo 8">
        <circle id="Elipse_1" data-name="Elipse 1" cx="15.231" cy="15.231" r="15.231" transform="matrix(0.961, -0.276, 0.276, 0.961, 72.126, 57.684)" fill="#fcc617"/>
        <g id="Grupo_5" data-name="Grupo 5">
          <circle id="Elipse_2" data-name="Elipse 2" cx="14.059" cy="14.059" r="14.059" transform="matrix(0.961, -0.276, 0.276, 0.961, 73.898, 59.614)" fill="#fff"/>
        </g>
      </g>
      <g id="Grupo_9" data-name="Grupo 9" transform="translate(59.46 -39.028) rotate(40)">
        <path id="Caminho_9" data-name="Caminho 9" d="M12.879.076A12.769,12.769,0,1,1,.077,12.831,12.829,12.829,0,0,1,12.879.076Z" transform="matrix(0.961, -0.276, 0.276, 0.961, 78.789, 56.11)" fill="#fcc617"/>
        <g id="Grupo_5-2" data-name="Grupo 5" transform="translate(82.149 52.308)">
          <path id="Caminho_10" data-name="Caminho 10" d="M10.552.052c5.561-.234,9.879,4.692,9.644,11S15.264,22.67,9.7,22.9-.175,18.213.059,11.9,4.991.286,10.552.052Z" transform="matrix(0.961, -0.276, 0.276, 0.961, 0, 5.481)" fill="#fff"/>
        </g>
      </g>
    </g>
  </g>
</svg>
