<svg id="people_outline-24px" xmlns="http://www.w3.org/2000/svg" width="28" height="27.99" viewBox="0 0 28 27.99">
  <path id="Caminho_18" data-name="Caminho 18" d="M0,0H28V27.99H0Z" fill="none"/>
  <path id="Caminho_19" data-name="Caminho 19" d="M11.8,22.494c-3.276,0-9.8,2.339-9.8,7v3.5H21.6v-3.5C21.6,24.833,15.076,22.494,11.8,22.494Zm-6.524,6.5a10.653,10.653,0,0,1,6.524-2.5,10.653,10.653,0,0,1,6.524,2.5Zm6.524-10c2.7,0,4.9-3.139,4.9-7s-2.2-7-4.9-7S6.9,8.139,6.9,12,9.1,18.995,11.8,18.995Zm0-10c1.162,0,2.1,1.34,2.1,3s-.938,3-2.1,3-2.1-1.34-2.1-3S10.638,9,11.8,9Zm9.856,13.615A9.561,9.561,0,0,1,24.4,29.491v3.5H30v-3.5C30,25.453,25.1,23.154,21.656,22.614ZM20.2,18.995c2.7,0,4.9-3.139,4.9-7s-2.2-7-4.9-7a3.692,3.692,0,0,0-2.1.7A14.282,14.282,0,0,1,19.5,12a14.282,14.282,0,0,1-1.4,6.3A3.692,3.692,0,0,0,20.2,18.995Z" transform="translate(-2 -5)" fill="#bdbdbd"/>
</svg>
