<svg xmlns="http://www.w3.org/2000/svg" width="30.4" height="30.4" viewBox="0 0 30.4 30.4">
  <path id="question-circle-regular" d="M23.2,8A15.2,15.2,0,1,0,38.4,23.2,15.2,15.2,0,0,0,23.2,8Zm0,27.458A12.258,12.258,0,1,1,35.458,23.2,12.251,12.251,0,0,1,23.2,35.458Zm6.573-15.641c0,4.11-4.439,4.173-4.439,5.692V25.9a.736.736,0,0,1-.735.735H21.8a.736.736,0,0,1-.735-.735v-.531c0-2.191,1.661-3.067,2.916-3.77,1.076-.6,1.736-1.014,1.736-1.813,0-1.057-1.348-1.759-2.438-1.759-1.421,0-2.077.673-3,1.837a.736.736,0,0,1-1.021.13L17.553,18.7a.737.737,0,0,1-.162-1,6.89,6.89,0,0,1,6.164-3.321C26.563,14.374,29.773,16.722,29.773,19.817Zm-4,10.248A2.574,2.574,0,1,1,23.2,27.49,2.577,2.577,0,0,1,25.774,30.064Z" transform="translate(-8 -8)" fill="#fcc617"/>
</svg>
