<svg xmlns="http://www.w3.org/2000/svg" width="28.867" height="28.867" viewBox="0 0 28.867 28.867">
  <path id="history-solid" d="M36.867,22.406A14.434,14.434,0,0,1,13.375,33.671a1.4,1.4,0,0,1-.107-2.072l.656-.656a1.4,1.4,0,0,1,1.856-.115,10.709,10.709,0,1,0-.684-16.2l2.954,2.954a.931.931,0,0,1-.658,1.59H8.931A.931.931,0,0,1,8,18.243V9.782a.931.931,0,0,1,1.59-.658L12.463,12a14.433,14.433,0,0,1,24.4,10.409ZM26.338,26.991l.572-.735a1.4,1.4,0,0,0-.245-1.96L24.3,22.454V16.381a1.4,1.4,0,0,0-1.4-1.4h-.931a1.4,1.4,0,0,0-1.4,1.4v7.895l3.807,2.961A1.4,1.4,0,0,0,26.338,26.991Z" transform="translate(-8 -8)" fill="#bdbdbd"/>
</svg>
