<svg xmlns="http://www.w3.org/2000/svg" width="27.467" height="27.467" viewBox="0 0 27.467 27.467">
  <path id="info-circle-solid" d="M21.733,8A13.733,13.733,0,1,0,35.467,21.733,13.735,13.735,0,0,0,21.733,8Zm0,6.091a2.326,2.326,0,1,1-2.326,2.326A2.326,2.326,0,0,1,21.733,14.091Zm3.1,14.066a.665.665,0,0,1-.665.665H19.3a.665.665,0,0,1-.665-.665V26.828a.665.665,0,0,1,.665-.665h.665V22.619H19.3a.665.665,0,0,1-.665-.665V20.626a.665.665,0,0,1,.665-.665h3.544a.665.665,0,0,1,.665.665v5.538h.665a.665.665,0,0,1,.665.665Z" transform="translate(-8 -8)" fill="#bdbdbd"/>
</svg>
