<svg xmlns="http://www.w3.org/2000/svg" width="34.286" height="30" viewBox="0 0 34.286 30">
  <path id="bars-solid" d="M1.224,65.51H33.061a1.224,1.224,0,0,0,1.224-1.224V61.224A1.224,1.224,0,0,0,33.061,60H1.224A1.224,1.224,0,0,0,0,61.224v3.061A1.224,1.224,0,0,0,1.224,65.51Zm0,12.245H33.061a1.224,1.224,0,0,0,1.224-1.224V73.469a1.224,1.224,0,0,0-1.224-1.224H1.224A1.224,1.224,0,0,0,0,73.469v3.061A1.224,1.224,0,0,0,1.224,77.755ZM1.224,90H33.061a1.224,1.224,0,0,0,1.224-1.224V85.714a1.224,1.224,0,0,0-1.224-1.224H1.224A1.224,1.224,0,0,0,0,85.714v3.061A1.224,1.224,0,0,0,1.224,90Z" transform="translate(0 -60)"/>
</svg>
