<svg xmlns="http://www.w3.org/2000/svg" width="28.002" height="27.991" viewBox="0 0 28.002 27.991">
  <g id="settings" transform="translate(-115.999 1157.993)">
    <path id="Caminho_127" data-name="Caminho 127" d="M124.083-1158.86a.652.652,0,0,0-.181.3c-.051.173-.117.4-.186.625-.024.08-.2.66-.386,1.288l-.34,1.142-.258.088a10.582,10.582,0,0,0-1.338.557l-.447.221-.266-.141-.585-.312-.479-.261c-.617-.333-1.173-.636-1.343-.732-.109-.059-.266-.144-.348-.186l-.152-.077-.287.269c-.16.149-.838.82-1.51,1.493l-1.218,1.224.144.261c.08.146.2.37.274.5s.165.306.207.386.152.274.237.431l.316.586c.087.162.223.415.3.553s.149.277.168.306a.188.188,0,0,1,.037.093,3.074,3.074,0,0,1-.184.4,12.238,12.238,0,0,0-.657,1.562c-.048.133-.053.138-.2.181-.08.027-.194.061-.253.08-.09.029-.269.082-.372.109-.013.005-.109.032-.213.064s-.2.061-.226.066-.122.035-.226.067-.2.061-.226.067-.184.053-.359.106c-.471.141-.715.216-.984.293a.663.663,0,0,0-.391.221l-.152.152v1.9c0,1.831,0,1.9.051,1.922a2.44,2.44,0,0,0,.271.093c.122.034.452.133.729.216s.524.155.545.16l.226.067c.3.091.409.125.651.194.3.088.763.226.867.261.072.021.09.048.13.178a11.337,11.337,0,0,0,.731,1.869l.181.362-.138.266c-.077.144-.215.4-.308.57l-.266.492c-.056.1-.173.317-.258.479-.258.471-.5.916-.628,1.16l-.122.226,1.356,1.358,1.353,1.354.154-.077.351-.189c.218-.123,1.088-.6,1.423-.775.117-.063.356-.191.532-.29s.4-.219.508-.272l.189-.1.476.24c.261.133.638.3.835.38s.383.149.412.162c.048.019.465.152.614.2.037.008.066.051.085.115.048.167.175.607.3,1,.029.1.061.2.066.226s.186.639.37,1.251c.035.109.106.351.162.54l.1.338h3.845l.146-.176a1.794,1.794,0,0,0,.152-.192,2.072,2.072,0,0,1,.077-.285c.032-.1.061-.2.066-.226s.035-.125.066-.226.061-.2.066-.226.035-.117.064-.213.168-.562.308-1.038.266-.884.279-.9a.8.8,0,0,1,.258-.117,11.275,11.275,0,0,0,1.457-.609l.479-.24.146.077c.08.042.314.167.518.28l1.183.641c.1.053.316.173.492.266s.423.229.548.3a1.323,1.323,0,0,0,.269.125c.048,0,2.973-2.936,2.973-2.986a.62.62,0,0,0-.069-.154c-.037-.067-.12-.216-.183-.333l-.279-.519c-.09-.167-.367-.679-.612-1.134s-.471-.867-.5-.918a.4.4,0,0,1-.056-.133,2.267,2.267,0,0,1,.16-.354c.141-.277.29-.612.415-.934.024-.059.051-.125.061-.147s.066-.184.122-.359a2.454,2.454,0,0,1,.13-.352,1.426,1.426,0,0,1,.269-.1c.394-.117.471-.138.665-.2.1-.029.2-.061.226-.067s.125-.034.226-.066.2-.061.226-.067.125-.035.226-.067.2-.061.226-.066.184-.053.359-.107.42-.125.542-.159a.635.635,0,0,0,.367-.2l.141-.138v-3.844l-.165-.056c-.157-.05-.864-.261-.952-.282-.021-.005-.122-.037-.226-.067-.279-.085-.4-.122-.665-.2-.13-.04-.335-.1-.452-.133l-.439-.131c-.125-.034-.3-.088-.4-.12l-.173-.053-.09-.274a11.744,11.744,0,0,0-.779-1.82l-.12-.213.213-.386c.114-.21.263-.484.33-.609.152-.282.593-1.1.957-1.77.064-.117.136-.253.16-.3l.045-.088L135.918-1155c-.731-.732-1.348-1.331-1.369-1.331a.214.214,0,0,0-.093.034c-.029.021-.154.091-.279.157-.239.127-.673.362-1.189.644l-.473.256c-.245.13-.449.242-.8.437l-.322.176-.423-.21a9.344,9.344,0,0,0-1.391-.575c-.213-.069-.409-.136-.441-.146s-.069-.077-.114-.229c-.088-.311-.16-.551-.428-1.448-.136-.447-.271-.907-.306-1.025s-.088-.3-.12-.4-.061-.208-.066-.234a.318.318,0,0,0-.027-.072c-.011-.019-.691-.027-1.938-.027h-1.922Zm2.609,8.9c.221.043.237.045.441.093a5.478,5.478,0,0,1,2.1,1.1,5.153,5.153,0,0,1,1.712,2.976,4.128,4.128,0,0,1,.072.963,4.367,4.367,0,0,1-.08.961c-.016.061-.035.154-.043.2a5.654,5.654,0,0,1-.4,1.078,4.223,4.223,0,0,1-1.954,2.042,5.148,5.148,0,0,1-2.978.54c-.167-.021-.335-.045-.372-.053l-.2-.043a6.145,6.145,0,0,1-1.125-.41,5.225,5.225,0,0,1-2.813-3.793,6.153,6.153,0,0,1,0-1.73c.008-.037.021-.109.029-.16a5.385,5.385,0,0,1,.606-1.578,3.841,3.841,0,0,1,1.08-1.214,5.3,5.3,0,0,1,1.981-.921c.194-.037.54-.093.638-.1a9.206,9.206,0,0,1,1.3.039Z" transform="translate(4 1)" fill="#fcc617"/>
  </g>
</svg>
