<svg xmlns="http://www.w3.org/2000/svg" width="30.4" height="23.167" viewBox="0 0 30.4 23.167">
  <path id="sign-out-alt-solid" d="M29.979,76.587,19.845,86.721A1.45,1.45,0,0,1,17.372,85.7V79.9h-8.2a1.444,1.444,0,0,1-1.448-1.448V72.666a1.444,1.444,0,0,1,1.448-1.448h8.2V65.428A1.451,1.451,0,0,1,19.845,64.4L29.979,74.536A1.46,1.46,0,0,1,29.979,76.587Zm-18.4,9.832V84.006a.726.726,0,0,0-.724-.724H5.791a1.928,1.928,0,0,1-1.93-1.93V69.771a1.928,1.928,0,0,1,1.93-1.93h5.067a.726.726,0,0,0,.724-.724V64.7a.726.726,0,0,0-.724-.724H5.791A5.792,5.792,0,0,0,0,69.771V81.352a5.792,5.792,0,0,0,5.791,5.791h5.067A.726.726,0,0,0,11.581,86.419Z" transform="translate(0 -63.979)" fill="#bdbdbd"/>
</svg>
