<svg xmlns="http://www.w3.org/2000/svg" width="25.175" height="28.771" viewBox="0 0 25.175 28.771">
  <path id="user-regular_1_" data-name="user-regular (1)" d="M17.622,17.083c-1.613,0-2.388.9-5.035.9s-3.417-.9-5.035-.9A7.554,7.554,0,0,0,0,24.635v1.439a2.7,2.7,0,0,0,2.7,2.7h19.78a2.7,2.7,0,0,0,2.7-2.7V24.635A7.554,7.554,0,0,0,17.622,17.083Zm4.855,8.991H2.7V24.635A4.864,4.864,0,0,1,7.552,19.78c.82,0,2.152.9,5.035.9,2.905,0,4.209-.9,5.035-.9a4.864,4.864,0,0,1,4.855,4.855Zm-9.89-9.89A8.092,8.092,0,1,0,4.5,8.092,8.094,8.094,0,0,0,12.587,16.184Zm0-13.487A5.395,5.395,0,1,1,7.193,8.092,5.4,5.4,0,0,1,12.587,2.7Z" fill="#fcc617"/>
</svg>
