<svg xmlns="http://www.w3.org/2000/svg" width="48.125" height="55" viewBox="0 0 48.125 55">
  <path id="user-regular" d="M33.688,32.656c-3.083,0-4.565,1.719-9.625,1.719s-6.531-1.719-9.625-1.719A14.441,14.441,0,0,0,0,47.094v2.75A5.158,5.158,0,0,0,5.156,55H42.969a5.158,5.158,0,0,0,5.156-5.156v-2.75A14.441,14.441,0,0,0,33.688,32.656Zm9.281,17.188H5.156v-2.75a9.3,9.3,0,0,1,9.281-9.281c1.568,0,4.114,1.719,9.625,1.719,5.554,0,8.046-1.719,9.625-1.719a9.3,9.3,0,0,1,9.281,9.281ZM24.063,30.938A15.469,15.469,0,1,0,8.594,15.469,15.473,15.473,0,0,0,24.063,30.938Zm0-25.781A10.313,10.313,0,1,1,13.75,15.469,10.329,10.329,0,0,1,24.063,5.156Z"/>
</svg>
